<mxfile host="app.diagrams.net" agent="Mozilla/5.0 (Windows NT 10.0; Win64; x64) AppleWebKit/537.36 (KHTML, like Gecko) Chrome/132.0.0.0 Safari/537.36" version="26.0.7">
  <diagram name="Page-1" id="m3iX6KrinGnXH__V3IVQ">
    <mxGraphModel dx="2150" dy="1118" grid="1" gridSize="10" guides="1" tooltips="1" connect="1" arrows="1" fold="1" page="1" pageScale="1" pageWidth="1169" pageHeight="827" math="0" shadow="0">
      <root>
        <mxCell id="0" />
        <mxCell id="1" parent="0" />
        <mxCell id="gMXtXZnRQnA3So-SrDP1-2" value="User_id" style="ellipse;whiteSpace=wrap;html=1;align=center;fontStyle=4;" parent="1" vertex="1">
          <mxGeometry x="100" y="37.5" width="100" height="40" as="geometry" />
        </mxCell>
        <mxCell id="gMXtXZnRQnA3So-SrDP1-3" value="email_id" style="ellipse;whiteSpace=wrap;html=1;align=center;" parent="1" vertex="1">
          <mxGeometry x="250" y="25" width="100" height="40" as="geometry" />
        </mxCell>
        <mxCell id="gMXtXZnRQnA3So-SrDP1-4" value="password" style="ellipse;whiteSpace=wrap;html=1;align=center;" parent="1" vertex="1">
          <mxGeometry x="395" y="37.5" width="100" height="40" as="geometry" />
        </mxCell>
        <mxCell id="gMXtXZnRQnA3So-SrDP1-5" value="first_name" style="ellipse;whiteSpace=wrap;html=1;align=center;" parent="1" vertex="1">
          <mxGeometry x="450" y="107.5" width="100" height="40" as="geometry" />
        </mxCell>
        <mxCell id="gMXtXZnRQnA3So-SrDP1-6" value="last_name" style="ellipse;whiteSpace=wrap;html=1;align=center;" parent="1" vertex="1">
          <mxGeometry x="460" y="195" width="100" height="40" as="geometry" />
        </mxCell>
        <mxCell id="gMXtXZnRQnA3So-SrDP1-9" value="address" style="ellipse;whiteSpace=wrap;html=1;align=center;" parent="1" vertex="1">
          <mxGeometry x="30" y="195" width="100" height="40" as="geometry" />
        </mxCell>
        <mxCell id="gMXtXZnRQnA3So-SrDP1-25" value="r_id" style="ellipse;whiteSpace=wrap;html=1;align=center;fontStyle=4;" parent="1" vertex="1">
          <mxGeometry x="855" y="25" width="100" height="40" as="geometry" />
        </mxCell>
        <mxCell id="gMXtXZnRQnA3So-SrDP1-27" value="user_type" style="ellipse;whiteSpace=wrap;html=1;align=center;" parent="1" vertex="1">
          <mxGeometry x="710" y="37.5" width="100" height="40" as="geometry" />
        </mxCell>
        <mxCell id="gMXtXZnRQnA3So-SrDP1-28" value="first_name" style="ellipse;whiteSpace=wrap;html=1;align=center;" parent="1" vertex="1">
          <mxGeometry x="990" y="37.5" width="100" height="40" as="geometry" />
        </mxCell>
        <mxCell id="gMXtXZnRQnA3So-SrDP1-29" value="last_name" style="ellipse;whiteSpace=wrap;html=1;align=center;" parent="1" vertex="1">
          <mxGeometry x="1040" y="107.5" width="100" height="40" as="geometry" />
        </mxCell>
        <mxCell id="gMXtXZnRQnA3So-SrDP1-30" value="total_balance" style="ellipse;whiteSpace=wrap;html=1;align=center;" parent="1" vertex="1">
          <mxGeometry x="662.5" y="195" width="100" height="40" as="geometry" />
        </mxCell>
        <mxCell id="gMXtXZnRQnA3So-SrDP1-78" value="item_id" style="ellipse;whiteSpace=wrap;html=1;align=center;fontStyle=4;" parent="1" vertex="1">
          <mxGeometry x="250" y="762" width="100" height="40" as="geometry" />
        </mxCell>
        <mxCell id="gMXtXZnRQnA3So-SrDP1-79" value="item_name" style="ellipse;whiteSpace=wrap;html=1;align=center;" parent="1" vertex="1">
          <mxGeometry x="130" y="752" width="100" height="40" as="geometry" />
        </mxCell>
        <mxCell id="gMXtXZnRQnA3So-SrDP1-80" value="closing_stock" style="ellipse;whiteSpace=wrap;html=1;align=center;" parent="1" vertex="1">
          <mxGeometry x="480" y="602" width="100" height="40" as="geometry" />
        </mxCell>
        <mxCell id="gMXtXZnRQnA3So-SrDP1-81" value="purchase_price" style="ellipse;whiteSpace=wrap;html=1;align=center;" parent="1" vertex="1">
          <mxGeometry x="460" y="692" width="100" height="40" as="geometry" />
        </mxCell>
        <mxCell id="gMXtXZnRQnA3So-SrDP1-82" value="unit" style="ellipse;whiteSpace=wrap;html=1;align=center;" parent="1" vertex="1">
          <mxGeometry x="374" y="752" width="100" height="40" as="geometry" />
        </mxCell>
        <mxCell id="gMXtXZnRQnA3So-SrDP1-83" value="opening_stock" style="ellipse;whiteSpace=wrap;html=1;align=center;" parent="1" vertex="1">
          <mxGeometry x="30" y="602" width="100" height="40" as="geometry" />
        </mxCell>
        <mxCell id="gMXtXZnRQnA3So-SrDP1-84" value="sell_price" style="ellipse;whiteSpace=wrap;html=1;align=center;" parent="1" vertex="1">
          <mxGeometry x="40" y="692" width="100" height="40" as="geometry" />
        </mxCell>
        <mxCell id="gMXtXZnRQnA3So-SrDP1-87" value="manages transaction" style="shape=rhombus;perimeter=rhombusPerimeter;whiteSpace=wrap;html=1;align=center;" parent="1" vertex="1">
          <mxGeometry x="545" y="395" width="140" height="80" as="geometry" />
        </mxCell>
        <mxCell id="gMXtXZnRQnA3So-SrDP1-92" style="edgeStyle=orthogonalEdgeStyle;rounded=0;orthogonalLoop=1;jettySize=auto;html=1;exitX=0.5;exitY=1;exitDx=0;exitDy=0;" parent="1" source="gMXtXZnRQnA3So-SrDP1-3" target="gMXtXZnRQnA3So-SrDP1-3" edge="1">
          <mxGeometry relative="1" as="geometry" />
        </mxCell>
        <mxCell id="gMXtXZnRQnA3So-SrDP1-106" value="Store and Manages inventory&amp;nbsp;" style="shape=rhombus;perimeter=rhombusPerimeter;whiteSpace=wrap;html=1;align=center;" parent="1" vertex="1">
          <mxGeometry x="222.5" y="387.5" width="155" height="95" as="geometry" />
        </mxCell>
        <mxCell id="gMXtXZnRQnA3So-SrDP1-110" value="manages transaction" style="shape=rhombus;perimeter=rhombusPerimeter;whiteSpace=wrap;html=1;align=center;" parent="1" vertex="1">
          <mxGeometry x="830" y="390" width="150" height="90" as="geometry" />
        </mxCell>
        <mxCell id="fzQdZdpA7Ug6Wy1Uild1-64" style="edgeStyle=orthogonalEdgeStyle;rounded=0;orthogonalLoop=1;jettySize=auto;html=1;exitX=0.5;exitY=1;exitDx=0;exitDy=0;entryX=0.5;entryY=0;entryDx=0;entryDy=0;" parent="1" source="fzQdZdpA7Ug6Wy1Uild1-3" target="gMXtXZnRQnA3So-SrDP1-106" edge="1">
          <mxGeometry relative="1" as="geometry" />
        </mxCell>
        <mxCell id="iHAXzri-CT7Ju9djNDSb-48" style="edgeStyle=none;curved=1;rounded=0;orthogonalLoop=1;jettySize=auto;html=1;exitX=1;exitY=1;exitDx=0;exitDy=0;entryX=0;entryY=0.5;entryDx=0;entryDy=0;fontSize=12;startSize=8;endSize=8;" parent="1" source="fzQdZdpA7Ug6Wy1Uild1-3" target="iHAXzri-CT7Ju9djNDSb-46" edge="1">
          <mxGeometry relative="1" as="geometry" />
        </mxCell>
        <mxCell id="fzQdZdpA7Ug6Wy1Uild1-3" value="user" style="whiteSpace=wrap;html=1;align=center;" parent="1" vertex="1">
          <mxGeometry x="250" y="195" width="100" height="40" as="geometry" />
        </mxCell>
        <mxCell id="fzQdZdpA7Ug6Wy1Uild1-70" style="edgeStyle=orthogonalEdgeStyle;rounded=0;orthogonalLoop=1;jettySize=auto;html=1;exitX=0.5;exitY=1;exitDx=0;exitDy=0;entryX=0.5;entryY=0;entryDx=0;entryDy=0;" parent="1" source="fzQdZdpA7Ug6Wy1Uild1-4" target="gMXtXZnRQnA3So-SrDP1-110" edge="1">
          <mxGeometry relative="1" as="geometry">
            <mxPoint x="897.5" y="302.5" as="targetPoint" />
          </mxGeometry>
        </mxCell>
        <mxCell id="fzQdZdpA7Ug6Wy1Uild1-4" value="record_user" style="whiteSpace=wrap;html=1;align=center;" parent="1" vertex="1">
          <mxGeometry x="847.5" y="195" width="115" height="40" as="geometry" />
        </mxCell>
        <mxCell id="fzQdZdpA7Ug6Wy1Uild1-6" value="item" style="whiteSpace=wrap;html=1;align=center;" parent="1" vertex="1">
          <mxGeometry x="250" y="602" width="100" height="40" as="geometry" />
        </mxCell>
        <mxCell id="fzQdZdpA7Ug6Wy1Uild1-7" value="transaction_id" style="ellipse;whiteSpace=wrap;html=1;align=center;fontStyle=4;" parent="1" vertex="1">
          <mxGeometry x="855" y="762" width="100" height="40" as="geometry" />
        </mxCell>
        <mxCell id="fzQdZdpA7Ug6Wy1Uild1-9" value="gave_amount" style="ellipse;whiteSpace=wrap;html=1;align=center;" parent="1" vertex="1">
          <mxGeometry x="1050" y="602" width="100" height="40" as="geometry" />
        </mxCell>
        <mxCell id="fzQdZdpA7Ug6Wy1Uild1-10" value="time_limit" style="ellipse;whiteSpace=wrap;html=1;align=center;" parent="1" vertex="1">
          <mxGeometry x="1050" y="692" width="100" height="40" as="geometry" />
        </mxCell>
        <mxCell id="fzQdZdpA7Ug6Wy1Uild1-11" value="description" style="ellipse;whiteSpace=wrap;html=1;align=center;" parent="1" vertex="1">
          <mxGeometry x="970" y="752" width="100" height="40" as="geometry" />
        </mxCell>
        <mxCell id="fzQdZdpA7Ug6Wy1Uild1-12" value="got_amount" style="ellipse;whiteSpace=wrap;html=1;align=center;" parent="1" vertex="1">
          <mxGeometry x="640" y="602" width="100" height="40" as="geometry" />
        </mxCell>
        <mxCell id="fzQdZdpA7Ug6Wy1Uild1-13" value="record_date" style="ellipse;whiteSpace=wrap;html=1;align=center;" parent="1" vertex="1">
          <mxGeometry x="640" y="692" width="100" height="40" as="geometry" />
        </mxCell>
        <mxCell id="fzQdZdpA7Ug6Wy1Uild1-14" value="transaction" style="whiteSpace=wrap;html=1;align=center;" parent="1" vertex="1">
          <mxGeometry x="855" y="602" width="100" height="40" as="geometry" />
        </mxCell>
        <mxCell id="fzQdZdpA7Ug6Wy1Uild1-15" value="" style="endArrow=none;html=1;rounded=0;entryX=0.5;entryY=0;entryDx=0;entryDy=0;" parent="1" source="gMXtXZnRQnA3So-SrDP1-3" target="fzQdZdpA7Ug6Wy1Uild1-3" edge="1">
          <mxGeometry width="50" height="50" relative="1" as="geometry">
            <mxPoint x="300" y="115" as="sourcePoint" />
            <mxPoint x="300" y="135.71067811865476" as="targetPoint" />
          </mxGeometry>
        </mxCell>
        <mxCell id="fzQdZdpA7Ug6Wy1Uild1-17" value="" style="endArrow=none;html=1;rounded=0;exitX=1;exitY=0.5;exitDx=0;exitDy=0;entryX=0;entryY=0.5;entryDx=0;entryDy=0;" parent="1" source="gMXtXZnRQnA3So-SrDP1-9" target="fzQdZdpA7Ug6Wy1Uild1-3" edge="1">
          <mxGeometry width="50" height="50" relative="1" as="geometry">
            <mxPoint x="190" y="295" as="sourcePoint" />
            <mxPoint x="240" y="245" as="targetPoint" />
          </mxGeometry>
        </mxCell>
        <mxCell id="fzQdZdpA7Ug6Wy1Uild1-18" value="" style="endArrow=none;html=1;rounded=0;exitX=0.5;exitY=1;exitDx=0;exitDy=0;entryX=0;entryY=0;entryDx=0;entryDy=0;" parent="1" source="fzQdZdpA7Ug6Wy1Uild1-50" target="fzQdZdpA7Ug6Wy1Uild1-3" edge="1">
          <mxGeometry width="50" height="50" relative="1" as="geometry">
            <mxPoint x="150" y="135" as="sourcePoint" />
            <mxPoint x="260" y="185" as="targetPoint" />
          </mxGeometry>
        </mxCell>
        <mxCell id="fzQdZdpA7Ug6Wy1Uild1-22" value="" style="endArrow=none;html=1;rounded=0;exitX=1;exitY=0.5;exitDx=0;exitDy=0;entryX=0;entryY=0.5;entryDx=0;entryDy=0;" parent="1" source="fzQdZdpA7Ug6Wy1Uild1-3" target="gMXtXZnRQnA3So-SrDP1-6" edge="1">
          <mxGeometry width="50" height="50" relative="1" as="geometry">
            <mxPoint x="240" y="215" as="sourcePoint" />
            <mxPoint x="290" y="215" as="targetPoint" />
          </mxGeometry>
        </mxCell>
        <mxCell id="fzQdZdpA7Ug6Wy1Uild1-23" value="" style="endArrow=none;html=1;rounded=0;exitX=1;exitY=0;exitDx=0;exitDy=0;entryX=0.5;entryY=1;entryDx=0;entryDy=0;" parent="1" source="fzQdZdpA7Ug6Wy1Uild1-3" target="gMXtXZnRQnA3So-SrDP1-5" edge="1">
          <mxGeometry width="50" height="50" relative="1" as="geometry">
            <mxPoint x="250" y="225" as="sourcePoint" />
            <mxPoint x="300" y="225" as="targetPoint" />
          </mxGeometry>
        </mxCell>
        <mxCell id="fzQdZdpA7Ug6Wy1Uild1-24" value="" style="endArrow=none;html=1;rounded=0;exitX=0.5;exitY=0;exitDx=0;exitDy=0;entryX=0.5;entryY=1;entryDx=0;entryDy=0;" parent="1" source="fzQdZdpA7Ug6Wy1Uild1-4" target="gMXtXZnRQnA3So-SrDP1-25" edge="1">
          <mxGeometry width="50" height="50" relative="1" as="geometry">
            <mxPoint x="447.5" y="217.5" as="sourcePoint" />
            <mxPoint x="497.5" y="217.5" as="targetPoint" />
          </mxGeometry>
        </mxCell>
        <mxCell id="fzQdZdpA7Ug6Wy1Uild1-25" value="" style="endArrow=none;html=1;rounded=0;exitX=1;exitY=0.5;exitDx=0;exitDy=0;entryX=0;entryY=0.5;entryDx=0;entryDy=0;" parent="1" source="gMXtXZnRQnA3So-SrDP1-30" target="fzQdZdpA7Ug6Wy1Uild1-4" edge="1">
          <mxGeometry width="50" height="50" relative="1" as="geometry">
            <mxPoint x="457.5" y="227.5" as="sourcePoint" />
            <mxPoint x="507.5" y="227.5" as="targetPoint" />
          </mxGeometry>
        </mxCell>
        <mxCell id="fzQdZdpA7Ug6Wy1Uild1-26" value="" style="endArrow=none;html=1;rounded=0;exitX=0.5;exitY=1;exitDx=0;exitDy=0;entryX=0;entryY=0;entryDx=0;entryDy=0;" parent="1" source="fzQdZdpA7Ug6Wy1Uild1-51" target="fzQdZdpA7Ug6Wy1Uild1-4" edge="1">
          <mxGeometry width="50" height="50" relative="1" as="geometry">
            <mxPoint x="772.5" y="47.5" as="sourcePoint" />
            <mxPoint x="517.5" y="237.5" as="targetPoint" />
          </mxGeometry>
        </mxCell>
        <mxCell id="fzQdZdpA7Ug6Wy1Uild1-27" value="" style="endArrow=none;html=1;rounded=0;exitX=1;exitY=0;exitDx=0;exitDy=0;entryX=0.5;entryY=1;entryDx=0;entryDy=0;" parent="1" source="fzQdZdpA7Ug6Wy1Uild1-4" target="gMXtXZnRQnA3So-SrDP1-29" edge="1">
          <mxGeometry width="50" height="50" relative="1" as="geometry">
            <mxPoint x="477.5" y="247.5" as="sourcePoint" />
            <mxPoint x="527.5" y="247.5" as="targetPoint" />
          </mxGeometry>
        </mxCell>
        <mxCell id="fzQdZdpA7Ug6Wy1Uild1-29" value="" style="endArrow=none;html=1;rounded=0;exitX=0.75;exitY=0;exitDx=0;exitDy=0;entryX=0.5;entryY=1;entryDx=0;entryDy=0;" parent="1" source="fzQdZdpA7Ug6Wy1Uild1-4" target="gMXtXZnRQnA3So-SrDP1-28" edge="1">
          <mxGeometry width="50" height="50" relative="1" as="geometry">
            <mxPoint x="497.5" y="267.5" as="sourcePoint" />
            <mxPoint x="547.5" y="267.5" as="targetPoint" />
          </mxGeometry>
        </mxCell>
        <mxCell id="fzQdZdpA7Ug6Wy1Uild1-30" value="" style="endArrow=none;html=1;rounded=0;exitX=1;exitY=0.5;exitDx=0;exitDy=0;entryX=0;entryY=0.5;entryDx=0;entryDy=0;" parent="1" source="fzQdZdpA7Ug6Wy1Uild1-12" target="fzQdZdpA7Ug6Wy1Uild1-14" edge="1">
          <mxGeometry width="50" height="50" relative="1" as="geometry">
            <mxPoint x="495" y="345" as="sourcePoint" />
            <mxPoint x="545" y="345" as="targetPoint" />
          </mxGeometry>
        </mxCell>
        <mxCell id="fzQdZdpA7Ug6Wy1Uild1-31" value="" style="endArrow=none;html=1;rounded=0;exitX=1;exitY=0.5;exitDx=0;exitDy=0;entryX=0;entryY=0.5;entryDx=0;entryDy=0;" parent="1" source="fzQdZdpA7Ug6Wy1Uild1-14" target="fzQdZdpA7Ug6Wy1Uild1-9" edge="1">
          <mxGeometry width="50" height="50" relative="1" as="geometry">
            <mxPoint x="505" y="355" as="sourcePoint" />
            <mxPoint x="555" y="355" as="targetPoint" />
          </mxGeometry>
        </mxCell>
        <mxCell id="fzQdZdpA7Ug6Wy1Uild1-32" value="" style="endArrow=none;html=1;rounded=0;exitX=1;exitY=1;exitDx=0;exitDy=0;entryX=0.5;entryY=0;entryDx=0;entryDy=0;" parent="1" source="fzQdZdpA7Ug6Wy1Uild1-14" target="fzQdZdpA7Ug6Wy1Uild1-10" edge="1">
          <mxGeometry width="50" height="50" relative="1" as="geometry">
            <mxPoint x="515" y="365" as="sourcePoint" />
            <mxPoint x="565" y="365" as="targetPoint" />
          </mxGeometry>
        </mxCell>
        <mxCell id="fzQdZdpA7Ug6Wy1Uild1-33" value="" style="endArrow=none;html=1;rounded=0;exitX=0.5;exitY=1;exitDx=0;exitDy=0;entryX=0.5;entryY=0;entryDx=0;entryDy=0;" parent="1" source="fzQdZdpA7Ug6Wy1Uild1-14" target="fzQdZdpA7Ug6Wy1Uild1-7" edge="1">
          <mxGeometry width="50" height="50" relative="1" as="geometry">
            <mxPoint x="525" y="375" as="sourcePoint" />
            <mxPoint x="575" y="375" as="targetPoint" />
          </mxGeometry>
        </mxCell>
        <mxCell id="fzQdZdpA7Ug6Wy1Uild1-35" value="" style="endArrow=none;html=1;rounded=0;exitX=1;exitY=1;exitDx=0;exitDy=0;entryX=0.5;entryY=0;entryDx=0;entryDy=0;" parent="1" source="fzQdZdpA7Ug6Wy1Uild1-6" target="gMXtXZnRQnA3So-SrDP1-81" edge="1">
          <mxGeometry width="50" height="50" relative="1" as="geometry">
            <mxPoint x="370" y="402" as="sourcePoint" />
            <mxPoint x="420" y="402" as="targetPoint" />
          </mxGeometry>
        </mxCell>
        <mxCell id="fzQdZdpA7Ug6Wy1Uild1-36" value="" style="endArrow=none;html=1;rounded=0;exitX=0;exitY=1;exitDx=0;exitDy=0;entryX=0.5;entryY=0;entryDx=0;entryDy=0;" parent="1" source="fzQdZdpA7Ug6Wy1Uild1-6" target="gMXtXZnRQnA3So-SrDP1-84" edge="1">
          <mxGeometry width="50" height="50" relative="1" as="geometry">
            <mxPoint x="400" y="452" as="sourcePoint" />
            <mxPoint x="450" y="452" as="targetPoint" />
          </mxGeometry>
        </mxCell>
        <mxCell id="fzQdZdpA7Ug6Wy1Uild1-37" value="" style="endArrow=none;html=1;rounded=0;exitX=0;exitY=0.5;exitDx=0;exitDy=0;entryX=1;entryY=0.5;entryDx=0;entryDy=0;" parent="1" source="gMXtXZnRQnA3So-SrDP1-80" target="fzQdZdpA7Ug6Wy1Uild1-6" edge="1">
          <mxGeometry width="50" height="50" relative="1" as="geometry">
            <mxPoint x="390" y="422" as="sourcePoint" />
            <mxPoint x="440" y="422" as="targetPoint" />
          </mxGeometry>
        </mxCell>
        <mxCell id="fzQdZdpA7Ug6Wy1Uild1-38" value="" style="endArrow=none;html=1;rounded=0;exitX=0.5;exitY=0;exitDx=0;exitDy=0;entryX=0.5;entryY=1;entryDx=0;entryDy=0;" parent="1" source="gMXtXZnRQnA3So-SrDP1-78" target="fzQdZdpA7Ug6Wy1Uild1-6" edge="1">
          <mxGeometry width="50" height="50" relative="1" as="geometry">
            <mxPoint x="400" y="432" as="sourcePoint" />
            <mxPoint x="450" y="432" as="targetPoint" />
          </mxGeometry>
        </mxCell>
        <mxCell id="fzQdZdpA7Ug6Wy1Uild1-39" value="" style="endArrow=none;html=1;rounded=0;exitX=0;exitY=1;exitDx=0;exitDy=0;entryX=0.5;entryY=0;entryDx=0;entryDy=0;" parent="1" source="fzQdZdpA7Ug6Wy1Uild1-14" target="fzQdZdpA7Ug6Wy1Uild1-13" edge="1">
          <mxGeometry width="50" height="50" relative="1" as="geometry">
            <mxPoint x="585" y="435" as="sourcePoint" />
            <mxPoint x="635" y="435" as="targetPoint" />
          </mxGeometry>
        </mxCell>
        <mxCell id="fzQdZdpA7Ug6Wy1Uild1-41" value="" style="endArrow=none;html=1;rounded=0;exitX=1;exitY=0.5;exitDx=0;exitDy=0;entryX=0;entryY=0.5;entryDx=0;entryDy=0;" parent="1" source="gMXtXZnRQnA3So-SrDP1-83" target="fzQdZdpA7Ug6Wy1Uild1-6" edge="1">
          <mxGeometry width="50" height="50" relative="1" as="geometry">
            <mxPoint x="430" y="462" as="sourcePoint" />
            <mxPoint x="480" y="462" as="targetPoint" />
          </mxGeometry>
        </mxCell>
        <mxCell id="fzQdZdpA7Ug6Wy1Uild1-50" value="contact_no" style="ellipse;shape=doubleEllipse;margin=3;whiteSpace=wrap;html=1;align=center;" parent="1" vertex="1">
          <mxGeometry x="30" y="107.5" width="100" height="40" as="geometry" />
        </mxCell>
        <mxCell id="fzQdZdpA7Ug6Wy1Uild1-51" value="contact_no" style="ellipse;shape=doubleEllipse;margin=3;whiteSpace=wrap;html=1;align=center;" parent="1" vertex="1">
          <mxGeometry x="662.5" y="107.5" width="100" height="40" as="geometry" />
        </mxCell>
        <mxCell id="fzQdZdpA7Ug6Wy1Uild1-53" value="DOB" style="ellipse;whiteSpace=wrap;html=1;align=center;" parent="1" vertex="1">
          <mxGeometry x="30" y="265" width="100" height="40" as="geometry" />
        </mxCell>
        <mxCell id="fzQdZdpA7Ug6Wy1Uild1-55" value="" style="endArrow=none;html=1;rounded=0;entryX=0;entryY=1;entryDx=0;entryDy=0;exitX=0.5;exitY=0;exitDx=0;exitDy=0;" parent="1" source="fzQdZdpA7Ug6Wy1Uild1-53" target="fzQdZdpA7Ug6Wy1Uild1-3" edge="1">
          <mxGeometry width="50" height="50" relative="1" as="geometry">
            <mxPoint x="160" y="335" as="sourcePoint" />
            <mxPoint x="210" y="285" as="targetPoint" />
          </mxGeometry>
        </mxCell>
        <mxCell id="fzQdZdpA7Ug6Wy1Uild1-56" value="Age" style="ellipse;whiteSpace=wrap;html=1;align=center;dashed=1;" parent="1" vertex="1">
          <mxGeometry x="30" y="335" width="100" height="40" as="geometry" />
        </mxCell>
        <mxCell id="fzQdZdpA7Ug6Wy1Uild1-59" value="" style="endArrow=none;html=1;rounded=0;entryX=0.5;entryY=1;entryDx=0;entryDy=0;exitX=0.5;exitY=0;exitDx=0;exitDy=0;" parent="1" source="fzQdZdpA7Ug6Wy1Uild1-56" target="fzQdZdpA7Ug6Wy1Uild1-53" edge="1">
          <mxGeometry width="50" height="50" relative="1" as="geometry">
            <mxPoint x="250" y="315" as="sourcePoint" />
            <mxPoint x="300" y="265" as="targetPoint" />
          </mxGeometry>
        </mxCell>
        <mxCell id="fzQdZdpA7Ug6Wy1Uild1-65" value="" style="endArrow=classic;startArrow=classic;html=1;rounded=0;exitX=0.5;exitY=1;exitDx=0;exitDy=0;entryX=0.5;entryY=0;entryDx=0;entryDy=0;" parent="1" source="gMXtXZnRQnA3So-SrDP1-106" target="fzQdZdpA7Ug6Wy1Uild1-6" edge="1">
          <mxGeometry width="50" height="50" relative="1" as="geometry">
            <mxPoint x="430" y="357" as="sourcePoint" />
            <mxPoint x="480" y="307" as="targetPoint" />
          </mxGeometry>
        </mxCell>
        <mxCell id="fzQdZdpA7Ug6Wy1Uild1-69" value="&lt;span style=&quot;border-bottom: 1px dotted&quot;&gt;r_id&lt;/span&gt;" style="ellipse;whiteSpace=wrap;html=1;align=center;" parent="1" vertex="1">
          <mxGeometry x="730" y="752" width="100" height="40" as="geometry" />
        </mxCell>
        <mxCell id="fzQdZdpA7Ug6Wy1Uild1-71" value="" style="endArrow=classic;startArrow=classic;html=1;rounded=0;entryX=0.5;entryY=1;entryDx=0;entryDy=0;exitX=0.5;exitY=0;exitDx=0;exitDy=0;" parent="1" source="fzQdZdpA7Ug6Wy1Uild1-14" target="gMXtXZnRQnA3So-SrDP1-110" edge="1">
          <mxGeometry width="50" height="50" relative="1" as="geometry">
            <mxPoint x="597.5" y="425" as="sourcePoint" />
            <mxPoint x="647.5" y="375" as="targetPoint" />
          </mxGeometry>
        </mxCell>
        <mxCell id="fzQdZdpA7Ug6Wy1Uild1-73" value="" style="endArrow=none;html=1;rounded=0;entryX=0.424;entryY=0.06;entryDx=0;entryDy=0;entryPerimeter=0;exitX=0.75;exitY=1;exitDx=0;exitDy=0;" parent="1" source="fzQdZdpA7Ug6Wy1Uild1-14" target="fzQdZdpA7Ug6Wy1Uild1-11" edge="1">
          <mxGeometry width="50" height="50" relative="1" as="geometry">
            <mxPoint x="790" y="635" as="sourcePoint" />
            <mxPoint x="840" y="585" as="targetPoint" />
          </mxGeometry>
        </mxCell>
        <mxCell id="fzQdZdpA7Ug6Wy1Uild1-75" value="" style="endArrow=none;html=1;rounded=0;exitX=0.25;exitY=1;exitDx=0;exitDy=0;entryX=0.5;entryY=0;entryDx=0;entryDy=0;" parent="1" source="fzQdZdpA7Ug6Wy1Uild1-14" target="fzQdZdpA7Ug6Wy1Uild1-69" edge="1">
          <mxGeometry width="50" height="50" relative="1" as="geometry">
            <mxPoint x="1030" y="475" as="sourcePoint" />
            <mxPoint x="1165" y="475" as="targetPoint" />
          </mxGeometry>
        </mxCell>
        <mxCell id="fzQdZdpA7Ug6Wy1Uild1-78" value="" style="endArrow=none;html=1;rounded=0;exitX=0.25;exitY=0;exitDx=0;exitDy=0;entryX=0.5;entryY=1;entryDx=0;entryDy=0;" parent="1" source="fzQdZdpA7Ug6Wy1Uild1-4" target="gMXtXZnRQnA3So-SrDP1-27" edge="1">
          <mxGeometry width="50" height="50" relative="1" as="geometry">
            <mxPoint x="967.5" y="567.5" as="sourcePoint" />
            <mxPoint x="1102.5" y="567.5" as="targetPoint" />
          </mxGeometry>
        </mxCell>
        <mxCell id="fzQdZdpA7Ug6Wy1Uild1-80" style="edgeStyle=orthogonalEdgeStyle;rounded=0;orthogonalLoop=1;jettySize=auto;html=1;exitX=0.5;exitY=1;exitDx=0;exitDy=0;" parent="1" source="gMXtXZnRQnA3So-SrDP1-3" target="gMXtXZnRQnA3So-SrDP1-3" edge="1">
          <mxGeometry relative="1" as="geometry" />
        </mxCell>
        <mxCell id="fzQdZdpA7Ug6Wy1Uild1-81" value="" style="endArrow=none;html=1;rounded=0;exitX=0.75;exitY=0;exitDx=0;exitDy=0;entryX=0.5;entryY=1;entryDx=0;entryDy=0;" parent="1" source="fzQdZdpA7Ug6Wy1Uild1-3" target="gMXtXZnRQnA3So-SrDP1-4" edge="1">
          <mxGeometry width="50" height="50" relative="1" as="geometry">
            <mxPoint x="460" y="175" as="sourcePoint" />
            <mxPoint x="510" y="125" as="targetPoint" />
          </mxGeometry>
        </mxCell>
        <mxCell id="fzQdZdpA7Ug6Wy1Uild1-82" value="" style="endArrow=none;html=1;rounded=0;exitX=0.25;exitY=0;exitDx=0;exitDy=0;entryX=0.5;entryY=1;entryDx=0;entryDy=0;" parent="1" source="fzQdZdpA7Ug6Wy1Uild1-3" target="gMXtXZnRQnA3So-SrDP1-2" edge="1">
          <mxGeometry width="50" height="50" relative="1" as="geometry">
            <mxPoint x="335" y="205" as="sourcePoint" />
            <mxPoint x="455" y="88" as="targetPoint" />
          </mxGeometry>
        </mxCell>
        <mxCell id="fzQdZdpA7Ug6Wy1Uild1-84" value="" style="endArrow=none;html=1;rounded=0;exitX=0.5;exitY=0;exitDx=0;exitDy=0;entryX=0.75;entryY=1;entryDx=0;entryDy=0;" parent="1" source="gMXtXZnRQnA3So-SrDP1-82" target="fzQdZdpA7Ug6Wy1Uild1-6" edge="1">
          <mxGeometry width="50" height="50" relative="1" as="geometry">
            <mxPoint x="660" y="759" as="sourcePoint" />
            <mxPoint x="780" y="642" as="targetPoint" />
          </mxGeometry>
        </mxCell>
        <mxCell id="fzQdZdpA7Ug6Wy1Uild1-85" value="" style="endArrow=none;html=1;rounded=0;exitX=0.5;exitY=0;exitDx=0;exitDy=0;entryX=0.25;entryY=1;entryDx=0;entryDy=0;" parent="1" source="gMXtXZnRQnA3So-SrDP1-79" target="fzQdZdpA7Ug6Wy1Uild1-6" edge="1">
          <mxGeometry width="50" height="50" relative="1" as="geometry">
            <mxPoint x="670" y="769" as="sourcePoint" />
            <mxPoint x="790" y="652" as="targetPoint" />
          </mxGeometry>
        </mxCell>
        <mxCell id="fzQdZdpA7Ug6Wy1Uild1-88" value="M" style="text;html=1;align=center;verticalAlign=middle;resizable=0;points=[];autosize=1;strokeColor=none;fillColor=none;" parent="1" vertex="1">
          <mxGeometry x="300" y="565" width="30" height="30" as="geometry" />
        </mxCell>
        <mxCell id="fzQdZdpA7Ug6Wy1Uild1-91" value="M" style="text;html=1;align=center;verticalAlign=middle;resizable=0;points=[];autosize=1;strokeColor=none;fillColor=none;" parent="1" vertex="1">
          <mxGeometry x="300" y="472.5" width="30" height="30" as="geometry" />
        </mxCell>
        <mxCell id="fzQdZdpA7Ug6Wy1Uild1-92" value="M" style="text;html=1;align=center;verticalAlign=middle;resizable=0;points=[];autosize=1;strokeColor=none;fillColor=none;" parent="1" vertex="1">
          <mxGeometry x="902.5" y="355" width="30" height="30" as="geometry" />
        </mxCell>
        <mxCell id="fzQdZdpA7Ug6Wy1Uild1-93" value="M" style="text;html=1;align=center;verticalAlign=middle;resizable=0;points=[];autosize=1;strokeColor=none;fillColor=none;" parent="1" vertex="1">
          <mxGeometry x="855" y="565" width="30" height="30" as="geometry" />
        </mxCell>
        <mxCell id="fzQdZdpA7Ug6Wy1Uild1-94" value="M" style="text;html=1;align=center;verticalAlign=middle;resizable=0;points=[];autosize=1;strokeColor=none;fillColor=none;" parent="1" vertex="1">
          <mxGeometry x="300" y="355" width="30" height="30" as="geometry" />
        </mxCell>
        <mxCell id="fzQdZdpA7Ug6Wy1Uild1-95" value="M" style="text;html=1;align=center;verticalAlign=middle;resizable=0;points=[];autosize=1;strokeColor=none;fillColor=none;" parent="1" vertex="1">
          <mxGeometry x="902.5" y="565" width="30" height="30" as="geometry" />
        </mxCell>
        <mxCell id="fzQdZdpA7Ug6Wy1Uild1-96" value="M" style="text;html=1;align=center;verticalAlign=middle;resizable=0;points=[];autosize=1;strokeColor=none;fillColor=none;" parent="1" vertex="1">
          <mxGeometry x="555" y="367" width="30" height="30" as="geometry" />
        </mxCell>
        <mxCell id="fzQdZdpA7Ug6Wy1Uild1-97" value="M" style="text;html=1;align=center;verticalAlign=middle;resizable=0;points=[];autosize=1;strokeColor=none;fillColor=none;" parent="1" vertex="1">
          <mxGeometry x="902.5" y="477.5" width="30" height="30" as="geometry" />
        </mxCell>
        <mxCell id="fzQdZdpA7Ug6Wy1Uild1-100" value="" style="endArrow=classic;startArrow=classic;html=1;rounded=0;exitX=1;exitY=1;exitDx=0;exitDy=0;entryX=0.25;entryY=0;entryDx=0;entryDy=0;" parent="1" source="gMXtXZnRQnA3So-SrDP1-87" target="fzQdZdpA7Ug6Wy1Uild1-14" edge="1">
          <mxGeometry width="50" height="50" relative="1" as="geometry">
            <mxPoint x="600" y="507" as="sourcePoint" />
            <mxPoint x="650" y="457" as="targetPoint" />
          </mxGeometry>
        </mxCell>
        <mxCell id="fzQdZdpA7Ug6Wy1Uild1-102" value="" style="endArrow=classic;html=1;rounded=0;exitX=0.75;exitY=1;exitDx=0;exitDy=0;" parent="1" source="fzQdZdpA7Ug6Wy1Uild1-3" target="gMXtXZnRQnA3So-SrDP1-87" edge="1">
          <mxGeometry width="50" height="50" relative="1" as="geometry">
            <mxPoint x="370" y="327" as="sourcePoint" />
            <mxPoint x="420" y="277" as="targetPoint" />
          </mxGeometry>
        </mxCell>
        <mxCell id="fzQdZdpA7Ug6Wy1Uild1-103" value="M" style="text;html=1;align=center;verticalAlign=middle;resizable=0;points=[];autosize=1;strokeColor=none;fillColor=none;" parent="1" vertex="1">
          <mxGeometry x="632.5" y="437" width="30" height="30" as="geometry" />
        </mxCell>
        <mxCell id="iHAXzri-CT7Ju9djNDSb-35" value="image" style="ellipse;whiteSpace=wrap;html=1;align=center;" parent="1" vertex="1">
          <mxGeometry x="30" y="540" width="100" height="40" as="geometry" />
        </mxCell>
        <mxCell id="iHAXzri-CT7Ju9djNDSb-36" value="" style="endArrow=none;html=1;rounded=0;fontSize=12;startSize=8;endSize=8;curved=1;exitX=0;exitY=0;exitDx=0;exitDy=0;entryX=0.5;entryY=1;entryDx=0;entryDy=0;" parent="1" source="fzQdZdpA7Ug6Wy1Uild1-6" target="iHAXzri-CT7Ju9djNDSb-35" edge="1">
          <mxGeometry width="50" height="50" relative="1" as="geometry">
            <mxPoint x="400" y="527" as="sourcePoint" />
            <mxPoint x="450" y="477" as="targetPoint" />
          </mxGeometry>
        </mxCell>
        <mxCell id="iHAXzri-CT7Ju9djNDSb-46" value="&lt;br&gt;Store and Manage&amp;nbsp;&lt;div&gt;data&lt;/div&gt;" style="shape=rhombus;perimeter=rhombusPerimeter;whiteSpace=wrap;html=1;align=center;" parent="1" vertex="1">
          <mxGeometry x="547.5" y="243" width="135" height="92" as="geometry" />
        </mxCell>
        <mxCell id="iHAXzri-CT7Ju9djNDSb-49" value="M" style="text;html=1;align=center;verticalAlign=middle;resizable=0;points=[];autosize=1;strokeColor=none;fillColor=none;" parent="1" vertex="1">
          <mxGeometry x="525" y="265" width="30" height="30" as="geometry" />
        </mxCell>
        <mxCell id="iHAXzri-CT7Ju9djNDSb-50" value="" style="endArrow=classic;startArrow=classic;html=1;rounded=0;fontSize=12;startSize=8;endSize=8;curved=1;exitX=1;exitY=0.5;exitDx=0;exitDy=0;entryX=0;entryY=1;entryDx=0;entryDy=0;" parent="1" source="iHAXzri-CT7Ju9djNDSb-46" target="fzQdZdpA7Ug6Wy1Uild1-4" edge="1">
          <mxGeometry width="50" height="50" relative="1" as="geometry">
            <mxPoint x="760" y="287" as="sourcePoint" />
            <mxPoint x="810" y="237" as="targetPoint" />
          </mxGeometry>
        </mxCell>
        <mxCell id="iHAXzri-CT7Ju9djNDSb-51" value="M" style="text;html=1;align=center;verticalAlign=middle;resizable=0;points=[];autosize=1;strokeColor=none;fillColor=none;" parent="1" vertex="1">
          <mxGeometry x="675" y="265" width="30" height="30" as="geometry" />
        </mxCell>
        <mxCell id="iHAXzri-CT7Ju9djNDSb-52" value="M" style="text;html=1;align=center;verticalAlign=middle;resizable=0;points=[];autosize=1;strokeColor=none;fillColor=none;" parent="1" vertex="1">
          <mxGeometry x="810" y="200" width="30" height="30" as="geometry" />
        </mxCell>
        <mxCell id="5sBgXCLnRpQceu2zL1LY-16" value="customer_id" style="ellipse;whiteSpace=wrap;html=1;align=center;fontStyle=4;" vertex="1" parent="1">
          <mxGeometry x="1402.5" y="762" width="100" height="40" as="geometry" />
        </mxCell>
        <mxCell id="5sBgXCLnRpQceu2zL1LY-19" value="last_name" style="ellipse;whiteSpace=wrap;html=1;align=center;" vertex="1" parent="1">
          <mxGeometry x="1537.5" y="752" width="100" height="40" as="geometry" />
        </mxCell>
        <mxCell id="5sBgXCLnRpQceu2zL1LY-22" value="Bill_customer" style="whiteSpace=wrap;html=1;align=center;" vertex="1" parent="1">
          <mxGeometry x="1402.5" y="602" width="100" height="40" as="geometry" />
        </mxCell>
        <mxCell id="5sBgXCLnRpQceu2zL1LY-28" value="first_name" style="ellipse;whiteSpace=wrap;html=1;align=center;" vertex="1" parent="1">
          <mxGeometry x="1270" y="752" width="100" height="40" as="geometry" />
        </mxCell>
        <mxCell id="5sBgXCLnRpQceu2zL1LY-56" value="index_no" style="ellipse;whiteSpace=wrap;html=1;align=center;fontStyle=4;" vertex="1" parent="1">
          <mxGeometry x="1402.5" y="20" width="100" height="40" as="geometry" />
        </mxCell>
        <mxCell id="5sBgXCLnRpQceu2zL1LY-58" value="item_id" style="ellipse;whiteSpace=wrap;html=1;align=center;" vertex="1" parent="1">
          <mxGeometry x="1537.5" y="32.5" width="100" height="40" as="geometry" />
        </mxCell>
        <mxCell id="5sBgXCLnRpQceu2zL1LY-59" value="quantity&amp;nbsp;" style="ellipse;whiteSpace=wrap;html=1;align=center;" vertex="1" parent="1">
          <mxGeometry x="1587.5" y="102.5" width="100" height="40" as="geometry" />
        </mxCell>
        <mxCell id="5sBgXCLnRpQceu2zL1LY-60" value="record_date" style="ellipse;whiteSpace=wrap;html=1;align=center;" vertex="1" parent="1">
          <mxGeometry x="1210" y="102.5" width="100" height="40" as="geometry" />
        </mxCell>
        <mxCell id="5sBgXCLnRpQceu2zL1LY-61" value="bill_history&amp;nbsp;" style="whiteSpace=wrap;html=1;align=center;" vertex="1" parent="1">
          <mxGeometry x="1395" y="190" width="115" height="40" as="geometry" />
        </mxCell>
        <mxCell id="5sBgXCLnRpQceu2zL1LY-62" value="" style="endArrow=none;html=1;rounded=0;exitX=0.5;exitY=0;exitDx=0;exitDy=0;entryX=0.5;entryY=1;entryDx=0;entryDy=0;" edge="1" parent="1" source="5sBgXCLnRpQceu2zL1LY-61" target="5sBgXCLnRpQceu2zL1LY-56">
          <mxGeometry width="50" height="50" relative="1" as="geometry">
            <mxPoint x="995" y="212.5" as="sourcePoint" />
            <mxPoint x="1045" y="212.5" as="targetPoint" />
          </mxGeometry>
        </mxCell>
        <mxCell id="5sBgXCLnRpQceu2zL1LY-64" value="" style="endArrow=none;html=1;rounded=0;entryX=0;entryY=0;entryDx=0;entryDy=0;exitX=0.5;exitY=1;exitDx=0;exitDy=0;" edge="1" parent="1" source="5sBgXCLnRpQceu2zL1LY-60" target="5sBgXCLnRpQceu2zL1LY-61">
          <mxGeometry width="50" height="50" relative="1" as="geometry">
            <mxPoint x="1260" y="170" as="sourcePoint" />
            <mxPoint x="1065" y="232.5" as="targetPoint" />
          </mxGeometry>
        </mxCell>
        <mxCell id="5sBgXCLnRpQceu2zL1LY-65" value="" style="endArrow=none;html=1;rounded=0;exitX=1;exitY=0;exitDx=0;exitDy=0;entryX=0.5;entryY=1;entryDx=0;entryDy=0;" edge="1" parent="1" source="5sBgXCLnRpQceu2zL1LY-61" target="5sBgXCLnRpQceu2zL1LY-59">
          <mxGeometry width="50" height="50" relative="1" as="geometry">
            <mxPoint x="1025" y="242.5" as="sourcePoint" />
            <mxPoint x="1075" y="242.5" as="targetPoint" />
          </mxGeometry>
        </mxCell>
        <mxCell id="5sBgXCLnRpQceu2zL1LY-66" value="" style="endArrow=none;html=1;rounded=0;exitX=0.75;exitY=0;exitDx=0;exitDy=0;entryX=0.5;entryY=1;entryDx=0;entryDy=0;" edge="1" parent="1" source="5sBgXCLnRpQceu2zL1LY-61" target="5sBgXCLnRpQceu2zL1LY-58">
          <mxGeometry width="50" height="50" relative="1" as="geometry">
            <mxPoint x="1045" y="262.5" as="sourcePoint" />
            <mxPoint x="1095" y="262.5" as="targetPoint" />
          </mxGeometry>
        </mxCell>
        <mxCell id="5sBgXCLnRpQceu2zL1LY-68" value="" style="endArrow=none;html=1;rounded=0;exitX=0.25;exitY=0;exitDx=0;exitDy=0;entryX=0.5;entryY=1;entryDx=0;entryDy=0;" edge="1" parent="1" source="5sBgXCLnRpQceu2zL1LY-61" target="5sBgXCLnRpQceu2zL1LY-70">
          <mxGeometry width="50" height="50" relative="1" as="geometry">
            <mxPoint x="1515" y="562.5" as="sourcePoint" />
            <mxPoint x="1340" y="90" as="targetPoint" />
          </mxGeometry>
        </mxCell>
        <mxCell id="5sBgXCLnRpQceu2zL1LY-70" value="customer_id" style="ellipse;whiteSpace=wrap;html=1;align=center;" vertex="1" parent="1">
          <mxGeometry x="1258" y="33" width="100" height="40" as="geometry" />
        </mxCell>
        <mxCell id="5sBgXCLnRpQceu2zL1LY-73" value="" style="endArrow=none;html=1;rounded=0;entryX=0.5;entryY=1;entryDx=0;entryDy=0;exitX=0.5;exitY=0;exitDx=0;exitDy=0;" edge="1" parent="1" source="5sBgXCLnRpQceu2zL1LY-16" target="5sBgXCLnRpQceu2zL1LY-22">
          <mxGeometry width="50" height="50" relative="1" as="geometry">
            <mxPoint x="1430" y="740" as="sourcePoint" />
            <mxPoint x="1480" y="690" as="targetPoint" />
          </mxGeometry>
        </mxCell>
        <mxCell id="5sBgXCLnRpQceu2zL1LY-74" value="" style="endArrow=none;html=1;rounded=0;exitX=0.5;exitY=0;exitDx=0;exitDy=0;entryX=0.25;entryY=1;entryDx=0;entryDy=0;" edge="1" parent="1" source="5sBgXCLnRpQceu2zL1LY-28" target="5sBgXCLnRpQceu2zL1LY-22">
          <mxGeometry width="50" height="50" relative="1" as="geometry">
            <mxPoint x="1340" y="730" as="sourcePoint" />
            <mxPoint x="1390" y="680" as="targetPoint" />
          </mxGeometry>
        </mxCell>
        <mxCell id="5sBgXCLnRpQceu2zL1LY-75" value="" style="endArrow=none;html=1;rounded=0;exitX=0.75;exitY=1;exitDx=0;exitDy=0;entryX=0.5;entryY=0;entryDx=0;entryDy=0;" edge="1" parent="1" source="5sBgXCLnRpQceu2zL1LY-22" target="5sBgXCLnRpQceu2zL1LY-19">
          <mxGeometry width="50" height="50" relative="1" as="geometry">
            <mxPoint x="1560" y="710" as="sourcePoint" />
            <mxPoint x="1610" y="660" as="targetPoint" />
          </mxGeometry>
        </mxCell>
        <mxCell id="5sBgXCLnRpQceu2zL1LY-76" value="" style="endArrow=none;html=1;rounded=0;entryX=0;entryY=1;entryDx=0;entryDy=0;exitX=0.5;exitY=0;exitDx=0;exitDy=0;" edge="1" parent="1" source="5sBgXCLnRpQceu2zL1LY-77">
          <mxGeometry width="50" height="50" relative="1" as="geometry">
            <mxPoint x="1250" y="680" as="sourcePoint" />
            <mxPoint x="1402.5" y="630" as="targetPoint" />
          </mxGeometry>
        </mxCell>
        <mxCell id="5sBgXCLnRpQceu2zL1LY-77" value="contact_no" style="ellipse;shape=doubleEllipse;margin=3;whiteSpace=wrap;html=1;align=center;" vertex="1" parent="1">
          <mxGeometry x="1200" y="692" width="100" height="40" as="geometry" />
        </mxCell>
        <mxCell id="5sBgXCLnRpQceu2zL1LY-78" value="stores customer bill" style="shape=rhombus;perimeter=rhombusPerimeter;whiteSpace=wrap;html=1;align=center;" vertex="1" parent="1">
          <mxGeometry x="1377.5" y="377" width="150" height="90" as="geometry" />
        </mxCell>
        <mxCell id="5sBgXCLnRpQceu2zL1LY-80" value="" style="endArrow=classic;html=1;rounded=0;entryX=0.5;entryY=1;entryDx=0;entryDy=0;exitX=0.5;exitY=0;exitDx=0;exitDy=0;" edge="1" parent="1" source="5sBgXCLnRpQceu2zL1LY-22" target="5sBgXCLnRpQceu2zL1LY-78">
          <mxGeometry width="50" height="50" relative="1" as="geometry">
            <mxPoint x="1360" y="550" as="sourcePoint" />
            <mxPoint x="1410" y="500" as="targetPoint" />
          </mxGeometry>
        </mxCell>
        <mxCell id="5sBgXCLnRpQceu2zL1LY-81" value="M" style="text;html=1;align=center;verticalAlign=middle;resizable=0;points=[];autosize=1;strokeColor=none;fillColor=none;" vertex="1" parent="1">
          <mxGeometry x="1450" y="467" width="30" height="30" as="geometry" />
        </mxCell>
        <mxCell id="5sBgXCLnRpQceu2zL1LY-82" value="" style="endArrow=none;html=1;rounded=0;entryX=0.5;entryY=1;entryDx=0;entryDy=0;exitX=0.5;exitY=0;exitDx=0;exitDy=0;" edge="1" parent="1" source="5sBgXCLnRpQceu2zL1LY-78" target="5sBgXCLnRpQceu2zL1LY-61">
          <mxGeometry width="50" height="50" relative="1" as="geometry">
            <mxPoint x="1430" y="330" as="sourcePoint" />
            <mxPoint x="1480" y="280" as="targetPoint" />
          </mxGeometry>
        </mxCell>
        <mxCell id="5sBgXCLnRpQceu2zL1LY-83" value="user" style="whiteSpace=wrap;html=1;align=center;" vertex="1" parent="1">
          <mxGeometry x="1770" y="190" width="100" height="40" as="geometry" />
        </mxCell>
        <mxCell id="5sBgXCLnRpQceu2zL1LY-84" value="Generate customer bill" style="shape=rhombus;perimeter=rhombusPerimeter;whiteSpace=wrap;html=1;align=center;" vertex="1" parent="1">
          <mxGeometry x="1562.5" y="295" width="150" height="90" as="geometry" />
        </mxCell>
        <mxCell id="5sBgXCLnRpQceu2zL1LY-88" value="" style="endArrow=classic;html=1;rounded=0;entryX=1;entryY=0.5;entryDx=0;entryDy=0;exitX=0.5;exitY=1;exitDx=0;exitDy=0;" edge="1" parent="1" source="5sBgXCLnRpQceu2zL1LY-83" target="5sBgXCLnRpQceu2zL1LY-84">
          <mxGeometry width="50" height="50" relative="1" as="geometry">
            <mxPoint x="1760" y="320" as="sourcePoint" />
            <mxPoint x="1810" y="270" as="targetPoint" />
          </mxGeometry>
        </mxCell>
        <mxCell id="5sBgXCLnRpQceu2zL1LY-91" value="" style="endArrow=classic;html=1;rounded=0;entryX=1;entryY=1;entryDx=0;entryDy=0;exitX=0;exitY=0.5;exitDx=0;exitDy=0;" edge="1" parent="1" source="5sBgXCLnRpQceu2zL1LY-84" target="5sBgXCLnRpQceu2zL1LY-61">
          <mxGeometry width="50" height="50" relative="1" as="geometry">
            <mxPoint x="1490" y="340" as="sourcePoint" />
            <mxPoint x="1540" y="290" as="targetPoint" />
          </mxGeometry>
        </mxCell>
        <mxCell id="5sBgXCLnRpQceu2zL1LY-92" value="M" style="text;html=1;align=center;verticalAlign=middle;resizable=0;points=[];autosize=1;strokeColor=none;fillColor=none;" vertex="1" parent="1">
          <mxGeometry x="1510" y="230" width="30" height="30" as="geometry" />
        </mxCell>
        <mxCell id="5sBgXCLnRpQceu2zL1LY-93" value="M" style="text;html=1;align=center;verticalAlign=middle;resizable=0;points=[];autosize=1;strokeColor=none;fillColor=none;" vertex="1" parent="1">
          <mxGeometry x="1700" y="305" width="30" height="30" as="geometry" />
        </mxCell>
      </root>
    </mxGraphModel>
  </diagram>
</mxfile>
